Coordinates
version=1
nRows=34
nColumns=38
inDegrees=no

Units are S.I. units (second, meters, Newtons, ...)
If the header above contains a line with 'inDegrees', this indicates whether rotational values are in degrees (yes) or radians (no).

endheader
time	pelvis_tilt	pelvis_list	pelvis_rotation	pelvis_tx	pelvis_ty	pelvis_tz	hip_flexion_r	hip_adduction_r	hip_rotation_r	knee_angle_r	ankle_angle_r	subtalar_angle_r	mtp_angle_r	hip_flexion_l	hip_adduction_l	hip_rotation_l	knee_angle_l	ankle_angle_l	subtalar_angle_l	mtp_angle_l	lumbar_extension	lumbar_bending	lumbar_rotation	arm_flex_r	arm_add_r	arm_rot_r	elbow_flex_r	pro_sup_r	wrist_flex_r	wrist_dev_r	arm_flex_l	arm_add_l	arm_rot_l	elbow_flex_l	pro_sup_l	wrist_flex_l	wrist_dev_l
0	3.0098	1.40231	-1.30606	0.700443	-0.163079	0.946795	-0.201137	0.0318059	-0.0815871	0.226622	-0.212417	0	0	-0.17597	-0.0822496	0.0219148	0.233726	-0.198552	0	0	-0.228777	0.0905751	-0.106267	0.053789	-0.356276	0.374276	0.814595	1.5708	0	0	0.0534315	-0.299285	0.321795	0.825787	1.5708	0	0
0.01	3.01424	1.40251	-1.30913	0.701011	-0.162774	0.946735	-0.20171	0.0320113	-0.0818269	0.226786	-0.210945	0	0	-0.176248	-0.0824851	0.0216617	0.23325	-0.198595	0	0	-0.227827	0.0894262	-0.108206	0.0551737	-0.356939	0.374924	0.813134	1.5708	0	0	0.0548011	-0.29963	0.326669	0.821524	1.5708	0	0
0.02	3.01888	1.40258	-1.31243	0.701572	-0.162467	0.946686	-0.202298	0.032278	-0.0816299	0.227245	-0.209447	0	0	-0.176543	-0.0828142	0.0213108	0.233	-0.19874	0	0	-0.226841	0.0882678	-0.109914	0.0561305	-0.357489	0.375983	0.8108	1.5708	0	0	0.0565123	-0.29987	0.331977	0.815816	1.5708	0	0
0.03	3.02372	1.40262	-1.31577	0.702068	-0.162143	0.946632	-0.202812	0.0324943	-0.0817027	0.227961	-0.207849	0	0	-0.176708	-0.0831216	0.0211562	0.233042	-0.198758	0	0	-0.225505	0.0872044	-0.111599	0.0566853	-0.357935	0.377407	0.807498	1.5708	0	0	0.0586896	-0.299952	0.338207	0.808483	1.5708	0	0
0.04	3.02884	1.40261	-1.31914	0.702492	-0.161809	0.946563	-0.203342	0.0325609	-0.0822228	0.228783	-0.206359	0	0	-0.176919	-0.0833956	0.0213791	0.233128	-0.198616	0	0	-0.223994	0.0863901	-0.113417	0.0568139	-0.358603	0.379275	0.80399	1.5708	0	0	0.0609117	-0.29997	0.345068	0.800087	1.5708	0	0
0.05	3.03369	1.40255	-1.32251	0.702863	-0.161488	0.946491	-0.203673	0.0325091	-0.0826306	0.229915	-0.204966	0	0	-0.177221	-0.0835609	0.0214797	0.233162	-0.198367	0	0	-0.222472	0.085852	-0.115119	0.0565685	-0.359372	0.381175	0.800655	1.5708	0	0	0.0629004	-0.299665	0.351894	0.791043	1.5708	0	0
0.06	3.03871	1.40199	-1.32623	0.703224	-0.161178	0.946442	-0.204206	0.0325163	-0.0831538	0.231718	-0.202972	0	0	-0.178088	-0.0837035	0.0216319	0.233174	-0.197809	0	0	-0.22052	0.0852255	-0.116021	0.0559847	-0.360525	0.384675	0.796317	1.5708	0	0	0.0662472	-0.299452	0.362533	0.779296	1.5708	0	0
0.07	3.04261	1.40096	-1.3291	0.703586	-0.160918	0.946406	-0.205062	0.0328649	-0.0830645	0.233399	-0.201527	0	0	-0.179309	-0.0840805	0.0216972	0.233407	-0.197305	0	0	-0.219991	0.0848444	-0.116992	0.0556039	-0.36134	0.387859	0.792182	1.5708	0	0	0.0686025	-0.299217	0.371629	0.769097	1.5708	0	0
0.08	3.04472	1.39974	-1.33019	0.703888	-0.160695	0.946353	-0.206042	0.033596	-0.0831207	0.235024	-0.200276	0	0	-0.180509	-0.0846659	0.0221203	0.233823	-0.196765	0	0	-0.219878	0.0848246	-0.117955	0.0549057	-0.36204	0.391011	0.78814	1.5708	0	0	0.0705608	-0.298863	0.380004	0.759254	1.5708	0	0
0.09	3.04478	1.39911	-1.32947	0.704137	-0.160474	0.946278	-0.206314	0.0344644	-0.0835648	0.236569	-0.199348	0	0	-0.180928	-0.085322	0.0225342	0.234427	-0.196183	0	0	-0.219646	0.0855006	-0.119941	0.0545975	-0.362003	0.393234	0.783941	1.5708	0	0	0.0717172	-0.298287	0.38705	0.749525	1.5708	0	0
0.1	3.04539	1.39835	-1.32966	0.704406	-0.160317	0.946186	-0.206589	0.0351039	-0.0845724	0.238067	-0.198867	0	0	-0.18153	-0.0858126	0.0229851	0.234943	-0.195706	0	0	-0.22029	0.0859649	-0.121775	0.054307	-0.361745	0.394926	0.780172	1.5708	0	0	0.072281	-0.297687	0.392316	0.740727	1.5708	0	0
0.11	3.04935	1.39658	-1.33237	0.704452	-0.160158	0.946206	-0.209104	0.0355097	-0.0854026	0.237544	-0.198883	0	0	-0.183421	-0.0857857	0.0243565	0.235085	-0.195432	0	0	-0.221865	0.0864434	-0.124145	0.0539345	-0.361563	0.396802	0.776004	1.5708	0	0	0.0733168	-0.296669	0.397932	0.731254	1.5708	0	0
0.12	3.05511	1.39471	-1.33631	0.704397	-0.159969	0.946268	-0.212459	0.0356159	-0.0877613	0.235658	-0.199291	0	0	-0.185695	-0.0853974	0.0263327	0.234736	-0.195369	0	0	-0.223607	0.0864979	-0.126788	0.0529621	-0.361557	0.398514	0.772194	1.5708	0	0	0.073997	-0.295711	0.403204	0.722426	1.5708	0	0
0.13	3.05911	1.3919	-1.33906	0.704449	-0.159844	0.946401	-0.216577	0.0362578	-0.0886705	0.233902	-0.199665	0	0	-0.189136	-0.0856054	0.0274961	0.234012	-0.195437	0	0	-0.226739	0.0868693	-0.128736	0.0520184	-0.361525	0.39975	0.7689	1.5708	0	0	0.0743651	-0.295074	0.407766	0.714791	1.5708	0	0
0.14	3.06229	1.38852	-1.34123	0.704543	-0.159737	0.94656	-0.221355	0.0373133	-0.0875888	0.231944	-0.199753	0	0	-0.193351	-0.0862188	0.0278842	0.232981	-0.195599	0	0	-0.230613	0.0874472	-0.13041	0.0511083	-0.3614	0.401006	0.765816	1.5708	0	0	0.0741764	-0.294662	0.411415	0.708309	1.5708	0	0
0.15	3.06566	1.38504	-1.34374	0.704609	-0.159642	0.946721	-0.225929	0.0381736	-0.0850715	0.230822	-0.199587	0	0	-0.197726	-0.0867643	0.0277885	0.231824	-0.195876	0	0	-0.234481	0.0880105	-0.132086	0.0500898	-0.361222	0.402222	0.762919	1.5708	0	0	0.0737781	-0.294207	0.414083	0.702614	1.5708	0	0
0.16	3.06772	1.38233	-1.34523	0.704749	-0.159579	0.946842	-0.229301	0.0391179	-0.0832891	0.230062	-0.199402	0	0	-0.201108	-0.0873891	0.0275321	0.230966	-0.196078	0	0	-0.237579	0.0885147	-0.133493	0.0489776	-0.36088	0.403373	0.760058	1.5708	0	0	0.0729735	-0.293798	0.415983	0.697797	1.5708	0	0
0.17	3.07208	1.38034	-1.34855	0.704715	-0.159519	0.946929	-0.23169	0.0390421	-0.0847532	0.230043	-0.199104	0	0	-0.203549	-0.0874275	0.0263763	0.23042	-0.196328	0	0	-0.239873	0.0886048	-0.135363	0.0476127	-0.360763	0.404625	0.757377	1.5708	0	0	0.0716442	-0.293273	0.417308	0.693815	1.5708	0	0
0.18	3.0718	1.37816	-1.34839	0.70482	-0.159582	0.947062	-0.233743	0.0399604	-0.0834204	0.230347	-0.198628	0	0	-0.205976	-0.0883977	0.023803	0.230001	-0.196267	0	0	-0.242609	0.0893259	-0.135968	0.04676	-0.360743	0.406841	0.754732	1.5708	0	0	0.0702006	-0.29288	0.41792	0.6906	1.5708	0	0
0.19	3.07035	1.3768	-1.3468	0.704906	-0.159582	0.947079	-0.234473	0.0407441	-0.0838374	0.231859	-0.197817	0	0	-0.207531	-0.089172	0.0238851	0.229728	-0.195626	0	0	-0.244171	0.089876	-0.136773	0.0454162	-0.360694	0.409187	0.75248	1.5708	0	0	0.0681891	-0.292193	0.416901	0.688151	1.5708	0	0
0.2	3.06999	1.3761	-1.34587	0.704987	-0.159435	0.94696	-0.234759	0.0412162	-0.0850635	0.233392	-0.196811	0	0	-0.208572	-0.0893582	0.0269172	0.22956	-0.194838	0	0	-0.244303	0.0898539	-0.138044	0.043501	-0.360222	0.409541	0.750364	1.5708	0	0	0.0654774	-0.291678	0.414979	0.686588	1.5708	0	0
0.21	3.07127	1.37545	-1.34685	0.705026	-0.159347	0.946895	-0.235255	0.0413921	-0.0850237	0.234177	-0.196097	0	0	-0.209435	-0.0893126	0.0275242	0.229544	-0.194661	0	0	-0.244523	0.0897244	-0.138975	0.0418227	-0.359868	0.409955	0.748379	1.5708	0	0	0.0629763	-0.29109	0.413174	0.684958	1.5708	0	0
0.22	3.07362	1.37413	-1.34925	0.705027	-0.15939	0.946958	-0.236243	0.0413254	-0.0838704	0.235219	-0.195589	0	0	-0.210827	-0.0894028	0.0250442	0.229568	-0.194958	0	0	-0.246066	0.0895521	-0.139519	0.0408706	-0.359707	0.410061	0.746737	1.5708	0	0	0.0608345	-0.290292	0.410443	0.683903	1.5708	0	0
0.23	3.07774	1.37256	-1.35296	0.70497	-0.159447	0.947052	-0.237824	0.0410477	-0.0829138	0.235796	-0.195392	0	0	-0.212377	-0.0893093	0.0225359	0.229719	-0.195171	0	0	-0.247851	0.0890126	-0.140217	0.0400242	-0.359455	0.410473	0.745024	1.5708	0	0	0.0587287	-0.289679	0.407956	0.683488	1.5708	0	0
0.24	3.07611	1.37068	-1.3512	0.705015	-0.159436	0.947099	-0.239638	0.0421519	-0.0821703	0.23598	-0.195517	0	0	-0.214519	-0.0899606	0.0245719	0.229489	-0.194596	0	0	-0.249424	0.0894351	-0.140349	0.0389808	-0.359379	0.411425	0.743618	1.5708	0	0	0.0563958	-0.289067	0.404974	0.683783	1.5708	0	0
0.25	3.07443	1.36864	-1.34955	0.705056	-0.159449	0.94718	-0.241545	0.0431157	-0.0824582	0.236125	-0.195876	0	0	-0.216814	-0.0906435	0.02606	0.229182	-0.194301	0	0	-0.251378	0.0899796	-0.140251	0.0381437	-0.359329	0.412182	0.742428	1.5708	0	0	0.0543185	-0.288302	0.401731	0.684421	1.5708	0	0
0.26	3.07437	1.36667	-1.34942	0.705054	-0.159496	0.947286	-0.243785	0.0438171	-0.0821536	0.235494	-0.196101	0	0	-0.218889	-0.0911007	0.0261654	0.229091	-0.194156	0	0	-0.253471	0.0902867	-0.140175	0.0373792	-0.359349	0.412754	0.741524	1.5708	0	0	0.0524448	-0.287545	0.398659	0.685394	1.5708	0	0
0.27	3.07629	1.36494	-1.35127	0.705029	-0.159545	0.947349	-0.245389	0.0437865	-0.082534	0.236162	-0.196098	0	0	-0.220727	-0.091059	0.0260462	0.229177	-0.193954	0	0	-0.255417	0.0901367	-0.140015	0.0366678	-0.359328	0.41325	0.740852	1.5708	0	0	0.050707	-0.286896	0.395789	0.686812	1.5708	0	0
0.28	3.07644	1.36308	-1.35146	0.704998	-0.159605	0.947441	-0.247747	0.0443596	-0.08174	0.23509	-0.196463	0	0	-0.222728	-0.0913461	0.0262169	0.229026	-0.193863	0	0	-0.257556	0.0903012	-0.139548	0.0358807	-0.359475	0.41365	0.740678	1.5708	0	0	0.0493595	-0.286113	0.393062	0.688126	1.5708	0	0
0.29	3.07623	1.36186	-1.35155	0.704953	-0.159619	0.947478	-0.249051	0.0445049	-0.0815732	0.235043	-0.196728	0	0	-0.224105	-0.0914469	0.0262499	0.229007	-0.193819	0	0	-0.25854	0.0904448	-0.13956	0.0349082	-0.359056	0.412738	0.740546	1.5708	0	0	0.0474825	-0.285572	0.39115	0.68928	1.5708	0	0
0.3	3.07571	1.3603	-1.35134	0.704913	-0.159625	0.947558	-0.251268	0.0449269	-0.0805231	0.233731	-0.197059	0	0	-0.225794	-0.0917706	0.0259861	0.229185	-0.193778	0	0	-0.259827	0.0907347	-0.139448	0.0343263	-0.358651	0.412238	0.740241	1.5708	0	0	0.0456942	-0.285181	0.38999	0.690509	1.5708	0	0
0.31	3.0755	1.35931	-1.35131	0.704894	-0.1596	0.947583	-0.252994	0.0453532	-0.0792732	0.232246	-0.196864	0	0	-0.226741	-0.0920143	0.0256799	0.229577	-0.193301	0	0	-0.260512	0.090812	-0.139588	0.0343238	-0.35806	0.412569	0.739295	1.5708	0	0	0.0439849	-0.284776	0.38855	0.691578	1.5708	0	0
0.32	3.07539	1.35929	-1.35159	0.704886	-0.159599	0.947544	-0.252816	0.0452889	-0.079404	0.232675	-0.196286	0	0	-0.22666	-0.0918691	0.0259331	0.229981	-0.192904	0	0	-0.260306	0.0903905	-0.139542	0.0344548	-0.357755	0.413989	0.738433	1.5708	0	0	0.0425498	-0.284266	0.386993	0.692393	1.5708	0	0
0.33	3.07495	1.35947	-1.35181	0.70488	-0.159615	0.94749	-0.251884	0.0449715	-0.0804773	0.234126	-0.195547	0	0	-0.226484	-0.0916635	0.0260946	0.230076	-0.192396	0	0	-0.259785	0.0900887	-0.139766	0.0350164	-0.357863	0.416691	0.737736	1.5708	0	0	0.0410565	-0.283653	0.385341	0.692918	1.5708	0	0
